<svg id="new-hayneedle-logo" width="195" height="42" xmlns="http://www.w3.org/2000/svg" version="1.1" viewBox="0 0 265.7 54.4" xml:space="preserve"><g fill="#455560"><path d="M0 8.8c0-0.3 0.1-0.5 0.3-0.6l2.3-0.6c0.4-0.1 0.2 0 0.6-0.1C3.5 7.6 3.5 8 3.5 8.3v13.1c1.5-1.2 3.9-3.1 7.2-3.1 5.1 0 5.5 3.6 5.5 6.9v15.3c0 0.4-0.2 0.6-0.6 0.6h-2.4c-0.4 0-0.6-0.2-0.6-0.6V25c0-2-0.5-3.7-3-3.7 -3 0-5.1 1.8-6.2 2.8v16.3c0 0.4-0.2 0.6-0.6 0.6H0.5C0.2 41 0 40.8 0 40.4V8.8zM36.3 33.7c0 2.9 0.1 3.3 0.6 4.6 0.2 0.6 0.8 1.4 0.8 1.7 0 0.2-0.2 0.3-0.4 0.4l-1.8 1.1c-0.2 0.1-0.3 0.1-0.4 0.1 -0.7 0-1.5-2.4-1.8-3.1 -0.6 0.5-2.8 3.1-6.6 3.1 -3.6 0-6-2.4-6-6.5 0-7.8 9.2-7.9 12.1-8v-1.7c0-2.7-0.8-4.1-4.1-4.1 -3.1 0-5.2 1.5-5.6 1.5 -0.1 0-0.3-0.1-0.3-0.2l-0.6-1.6c-0.1-0.2-0.1-0.4-0.1-0.6 0-0.8 4.2-2.1 7.2-2.1 5.3 0 7.1 2.6 7.1 6.4V33.7zM32.8 30c-2 0-8.6 0-8.6 4.9 0 1.9 1 3.9 3.4 3.9 2.4 0 4.5-2.2 5.3-2.9V30zM80.5 40.4c0 0.4-0.2 0.6-0.6 0.6h-2.4c-0.4 0-0.5-0.2-0.5-0.6V25c0-2-0.5-3.7-3-3.7 -3 0-4.9 1.8-6.1 2.8v16.3c0 0.4-0.2 0.6-0.6 0.6H65c-0.4 0-0.5-0.2-0.5-0.6V24.5c0-1.5 0-2-0.2-2.7 -0.4-1.4-0.7-1.7-0.7-1.9 0-0.1 0-0.2 0.2-0.3l2.1-1.1c0.1 0 0.2-0.2 0.4-0.2 0.8 0 1.4 2.8 1.4 3.1 1.5-1.2 3.9-3.1 7.4-3.1 5.1 0 5.5 3.6 5.5 6.9V40.4zM102.2 38.9c0 0.1 0.1 0.2 0.1 0.4 0 0.5-3.9 2.4-7.3 2.4 -6.1 0-9.7-4.7-9.7-11.7 0-6.8 3.4-11.7 9.1-11.7 7.7 0 8.4 7.5 8.4 11.4 0 0.6 0 1-0.5 1H89.2c0 2.8 1.1 7.9 6.3 7.9 3 0 5.4-1.9 5.7-1.9 0.1 0 0.2 0.1 0.3 0.3L102.2 38.9zM99.1 27.8c0-2.4-0.8-6.7-4.8-6.7 -4.2 0-5.2 4.4-5.2 6.7H99.1zM123.6 38.9c0.1 0.1 0.1 0.2 0.1 0.4 0 0.5-3.9 2.4-7.3 2.4 -6.1 0-9.7-4.7-9.7-11.7 0-6.8 3.4-11.7 9.1-11.7 7.7 0 8.4 7.5 8.4 11.4 0 0.6 0 1-0.5 1h-13.2c0 2.8 1.1 7.9 6.4 7.9 3 0 5.4-1.9 5.7-1.9 0.1 0 0.2 0.1 0.3 0.3L123.6 38.9zM120.4 27.8c0-2.4-0.8-6.7-4.8-6.7 -4.2 0-5.2 4.4-5.2 6.7H120.4zM145 33.7c0 2.1 0 3.5 0.5 4.6 0.2 0.6 0.8 1.4 0.8 1.7 0 0.2-0.2 0.3-0.4 0.4l-1.8 1.1c-0.2 0.1-0.3 0.1-0.4 0.1 -0.6 0-1.5-2-1.7-2.7 -1.1 0.8-3.4 2.7-6.8 2.7 -4.9 0-7.2-5.5-7.2-11.2 0-6.6 2.3-12.1 7.7-12.1 2.8 0 4.4 0.8 5.7 1.6V8.8c0-0.3 0.1-0.5 0.3-0.6l2.3-0.6c0.4-0.1 0.2 0 0.6-0.1 0.4 0 0.4 0.4 0.4 0.6V33.7zM141.5 22.8c-1.5-0.8-2.9-1.5-5.2-1.5 -4 0-4.3 4.5-4.3 9 0 3.9 0.3 8.2 4 8.2 2.4 0 4.4-2 5.5-2.7V22.8zM160.3 40.1c0 0.1 0.1 0.2 0.1 0.3 0 0.5-2.2 1.2-3.9 1.2 -2.3 0-3.8-0.9-4.3-2.2 -0.6-1.5-0.6-5.1-0.6-6.7V8.8c0-0.3 0.1-0.5 0.3-0.6l2.3-0.6c0.4-0.1 0.2 0 0.6-0.1 0.3 0 0.3 0.4 0.3 0.6v24.6c0 1.4 0 3.8 0.1 4.3 0.1 0.5 0.5 1.6 1.8 1.6 1.2 0 2.1-0.6 2.4-0.6 0.3 0 0.3 0.1 0.3 0.3L160.3 40.1zM178.7 38.9c0 0.1 0.1 0.2 0.1 0.4 0 0.5-3.9 2.4-7.3 2.4 -6.1 0-9.7-4.7-9.7-11.7 0-6.8 3.4-11.7 9.1-11.7 7.7 0 8.4 7.5 8.4 11.4 0 0.6 0 1-0.5 1h-13.2c0 2.8 1.1 7.9 6.4 7.9 3 0 5.4-1.9 5.7-1.9 0.1 0 0.2 0.1 0.3 0.3L178.7 38.9zM175.6 27.8c0-2.4-0.8-6.7-4.8-6.7 -4.2 0-5.2 4.4-5.2 6.7H175.6zM54.1 38c-0.7 2.5-1.8 6.3-3.2 9.2 -0.9 1.9-2.9 3.4-5.4 3.4 -2.6 0-5.8-1.6-5.8-2.3 0-0.1 0-0.2 0.1-0.3l0.9-1.8c0.1-0.1 0.2-0.2 0.3-0.2 0.5 0 2.2 1.8 4.4 1.8 1.7 0 2.8-1.7 3.5-3.9l1-2.9h-1.7c-0.4 0-0.5-0.1-0.6-0.4l-7.1-20c-0.1-0.2-0.1-0.4-0.1-0.6 0-0.2 0.2-0.3 0.4-0.4l1.9-0.8c0.2-0.1 0.5-0.2 0.6-0.2 0.3 0 0.4 0.1 0.5 0.4l5.8 17.4c0.5 1.3 0.7 2.4 0.9 3.3h0.1c0.2-1.1 0.4-2.1 0.7-3.2l4.6-17.5c0.1-0.2 0.2-0.4 0.5-0.4 0.2 0 0.4 0.1 0.6 0.2l1.9 0.8c0.2 0.1 0.4 0.1 0.4 0.4 0 0.3 0 0.4-0.1 0.6L54.1 38z"></path></g><rect x="213" y="11.5" transform="matrix(-0.696 -0.718 0.718 -0.696 337.5049 215.2839)" fill="#38939B" width="2.7" height="49.5"></rect><polygon fill="#78A22F" points="212 15.3 250.9 45.2 252.5 43.1 213.7 13.1 "></polygon><polygon fill="#8E0C3A" points="233 51 235.7 51.4 242.3 3.6 239.6 3.3 "></polygon><rect x="213" y="-4.2" transform="matrix(-0.2872 -0.9579 0.9579 -0.2872 257.6882 229.7321)" fill="#F78E1E" width="2.7" height="46.4"></rect><rect x="243.5" y="7.5" transform="matrix(-0.1867 -0.9824 0.9824 -0.1867 262.6412 274.2814)" fill="#9A8B7D" width="2.7" height="41.8"></rect><polygon fill="#5A4099" points="199.8 7.4 218.7 46.2 221.1 45 202.2 6.2 "></polygon><polygon fill="#0067AC" points="211.5 2.5 249.3 20.2 250.4 17.8 212.7 0 "></polygon><path fill="#455560" d="M241.5 46.9c1.1 0 2.1 0.9 2.1 2.1s-1 2.1-2.1 2.1c-1.1 0-2.1-0.9-2.1-2.1S240.3 46.9 241.5 46.9zM241.5 50.8c1 0 1.7-0.8 1.7-1.8s-0.8-1.8-1.7-1.8c-1 0-1.7 0.8-1.7 1.8S240.5 50.8 241.5 50.8zM240.7 47.8h0.9c0.6 0 0.9 0.2 0.9 0.7 0 0.4-0.3 0.6-0.6 0.7l0.7 1.1h-0.4l-0.7-1h-0.4v1h-0.4V47.8zM241 48.8h0.4c0.3 0 0.6 0 0.6-0.4 0-0.3-0.3-0.4-0.5-0.4h-0.5V48.8z"></path></svg>
